<?xml version="1.0" standalone="no"?>
<!DOCTYPE svg PUBLIC "-//W3C//DTD SVG 20010904//EN"
 "http://www.w3.org/TR/2001/REC-SVG-20010904/DTD/svg10.dtd">
<svg version="1.0" xmlns="http://www.w3.org/2000/svg"
 width="512.000000pt" height="512.000000pt" viewBox="0 0 512.000000 512.000000"
 preserveAspectRatio="xMidYMid meet">

<g transform="translate(0.000000,512.000000) scale(0.100000,-0.100000)"
fill="#000000" stroke="none">
<path d="M0 2560 l0 -2560 2560 0 2560 0 0 2560 0 2560 -2560 0 -2560 0 0
-2560z m964 1034 c13 -12 16 -41 16 -155 l0 -139 583 -2 582 -3 3 -724 c1
-526 -1 -728 -9 -737 -9 -12 -138 -14 -740 -14 l-729 0 -10 26 c-6 16 -10 346
-10 872 l0 846 22 23 c20 22 29 23 149 23 103 0 131 -3 143 -16z m1784 -1031
l-3 -738 -185 -2 c-106 -2 -191 1 -200 7 -13 8 -15 101 -18 717 -1 389 0 718
3 731 5 22 6 22 205 22 l200 0 -2 -737z m1720 -145 l2 -878 -22 -5 c-13 -3
-279 -4 -593 -3 l-570 3 -3 151 c-2 118 0 154 11 162 10 8 139 13 433 14 l419
3 0 120 0 120 -571 3 -572 2 -6 23 c-8 31 -8 1152 1 1160 3 4 335 6 737 5
l731 -3 3 -877z"/>
<path d="M980 2570 l0 -420 420 0 420 0 0 420 0 420 -420 0 -420 0 0 -420z"/>
<path d="M3300 2715 l0 -275 425 0 425 0 0 275 0 275 -425 0 -425 0 0 -275z"/>
</g>
</svg>
